<?xml version="1.0" encoding="UTF-8" standalone="no"?>
<svg width="64px" height="64px" viewBox="0 0 64 64" version="1.1" xmlns="http://www.w3.org/2000/svg" xmlns:xlink="http://www.w3.org/1999/xlink" xmlns:sketch="http://www.bohemiancoding.com/sketch/ns">
    <!-- Generator: Sketch 3.4 (15575) - http://www.bohemiancoding.com/sketch -->
    <title>c-hourglass</title>
    <desc>Created with Sketch.</desc>
    <defs></defs>
    <g id="Page-1" stroke="none" stroke-width="1" fill="none" fill-rule="evenodd" sketch:type="MSPage">
        <g id="c-hourglass" sketch:type="MSArtboardGroup">
            <path d="M32,64 C49.673112,64 64,49.673112 64,32 C64,14.326888 49.673112,0 32,0 C14.326888,0 0,14.326888 0,32 C0,49.673112 14.326888,64 32,64 Z" id="Oval-1" fill="#1191BB" sketch:type="MSShapeGroup"></path>
            <path d="M40.9347039,41 C40.3968318,36.7841025 36.601736,32 32,32 C27.398264,32 23.6031682,36.7841025 23.0652961,41 L23,41 L23,50 L41,50 L41,41 L40.9347039,41 Z M40.9347039,23 C40.3968318,27.2158975 36.601736,32 32,32 C27.398264,32 23.6031682,27.2158975 23.0652961,23 L23,23 L23,14 L41,14 L41,23 L40.9347039,23 Z M24.9170925,32 C22.521822,29.707712 21,26.3770724 21,23 L21,12 L43,12 L43,23 C43,26.3770724 41.478178,29.707712 39.0829075,32 C41.478178,34.292288 43,37.6229276 43,41 L43,52 L21,52 L21,41 C21,37.6229276 22.521822,34.292288 24.9170925,32 Z" id="Rectangle-118" fill="#FFFFFF" sketch:type="MSShapeGroup"></path>
            <path d="M25,42 C25,42 31,42 32,33 C33,42 39,42 39,42 L39,48 L25,48 L25,42 Z" id="Rectangle-122" fill="#FFCC00" sketch:type="MSShapeGroup"></path>
            <path d="M39,22 C39,29 33,28 32,33 C31,28 25,29 25,22 L39,22 Z" id="Oval-187" fill="#FFCC00" sketch:type="MSShapeGroup"></path>
        </g>
    </g>
</svg>