<?xml version="1.0" encoding="UTF-8" standalone="no"?>
<svg width="64px" height="64px" viewBox="0 0 64 64" version="1.1" xmlns="http://www.w3.org/2000/svg" xmlns:xlink="http://www.w3.org/1999/xlink" xmlns:sketch="http://www.bohemiancoding.com/sketch/ns">
    <!-- Generator: Sketch 3.4 (15575) - http://www.bohemiancoding.com/sketch -->
    <title>c-warning</title>
    <desc>Created with Sketch.</desc>
    <defs></defs>
    <g id="Page-1" stroke="none" stroke-width="1" fill="none" fill-rule="evenodd" sketch:type="MSPage">
        <g id="c-warning" sketch:type="MSArtboardGroup">
            <path d="M32,64 C49.673112,64 64,49.673112 64,32 C64,14.326888 49.673112,0 32,0 C14.326888,0 0,14.326888 0,32 C0,49.673112 14.326888,64 32,64 Z" id="Oval-1" fill="#FFCC00" sketch:type="MSShapeGroup"></path>
            <path d="M35.9438944,13 L35.9438944,27.8876712 C35.9438944,29.4666746 35.8448855,31.0152892 35.6468647,32.5335616 C35.4488439,34.0518341 35.1848201,35.6611787 34.8547855,37.3616438 L29.3432343,37.3616438 C29.0131997,35.6611787 28.7491759,34.0518341 28.5511551,32.5335616 C28.3531343,31.0152892 28.2541254,29.4666746 28.2541254,27.8876712 L28.2541254,13 L35.9438944,13 L35.9438944,13 Z M27,47.0958904 C27,46.5579882 27.1265114,46.0461212 27.379538,45.560274 C27.6325645,45.0744268 27.9845962,44.6579926 28.4356436,44.3109589 C28.8866909,43.9639252 29.4202389,43.6863024 30.0363036,43.4780822 C30.6523683,43.269862 31.3124277,43.1657534 32.0165017,43.1657534 C32.6985733,43.1657534 33.3476317,43.269862 33.9636964,43.4780822 C34.5797611,43.6863024 35.1078086,43.9639252 35.5478548,44.3109589 C35.987901,44.6579926 36.3399327,45.0744268 36.6039604,45.560274 C36.8679881,46.0461212 37,46.5579882 37,47.0958904 C37,47.6511443 36.8679881,48.1673492 36.6039604,48.6445205 C36.3399327,49.1216919 35.987901,49.5337882 35.5478548,49.8808219 C35.1078086,50.2278556 34.5797611,50.5011406 33.9636964,50.7006849 C33.3476317,50.9002293 32.6985733,51 32.0165017,51 C31.3124277,51 30.6523683,50.9002293 30.0363036,50.7006849 C29.4202389,50.5011406 28.8866909,50.2278556 28.4356436,49.8808219 C27.9845962,49.5337882 27.6325645,49.1216919 27.379538,48.6445205 C27.1265114,48.1673492 27,47.6511443 27,47.0958904 L27,47.0958904 L27,47.0958904 Z" id="!" fill="#000000" sketch:type="MSShapeGroup"></path>
        </g>
    </g>
</svg>