<?xml version="1.0" encoding="UTF-8" standalone="no"?>
<svg width="64px" height="64px" viewBox="0 0 64 64" version="1.1" xmlns="http://www.w3.org/2000/svg" xmlns:xlink="http://www.w3.org/1999/xlink" xmlns:sketch="http://www.bohemiancoding.com/sketch/ns">
    <!-- Generator: Sketch 3.4 (15575) - http://www.bohemiancoding.com/sketch -->
    <title>c-weather-cloudy-with-sun</title>
    <desc>Created with Sketch.</desc>
    <defs></defs>
    <g id="Page-1" stroke="none" stroke-width="1" fill="none" fill-rule="evenodd" sketch:type="MSPage">
        <g id="c-weather-cloudy-with-sun" sketch:type="MSArtboardGroup">
            <path d="M32,64 C49.673112,64 64,49.673112 64,32 C64,14.326888 49.673112,0 32,0 C14.326888,0 0,14.326888 0,32 C0,49.673112 14.326888,64 32,64 Z" id="Oval-1" fill="#1191BB" sketch:type="MSShapeGroup"></path>
            <circle id="Oval-164" fill="#FFCC00" sketch:type="MSShapeGroup" cx="21.5" cy="24.5" r="7.5"></circle>
            <path d="M21.5,11 L23.5,15 L19.5,15 L21.5,11 Z M31.0459415,14.9540585 L29.631728,19.1966991 L26.8033009,16.368272 L31.0459415,14.9540585 Z M35,24.5 L31,26.5 L31,22.5 L35,24.5 Z M31.0459415,34.0459415 L26.8033009,32.631728 L29.631728,29.8033009 L31.0459415,34.0459415 Z M21.5,38 L19.5,34 L23.5,34 L21.5,38 Z M11.9540585,34.0459415 L13.368272,29.8033009 L16.1966991,32.631728 L11.9540585,34.0459415 Z M8,24.5 L12,22.5 L12,26.5 L8,24.5 Z M11.9540585,14.9540585 L16.1966991,16.368272 L13.368272,19.1966991 L11.9540585,14.9540585 Z" id="Rectangle-74" fill="#FFCC00" sketch:type="MSShapeGroup"></path>
            <path d="M21,40 C18.2385763,40 16,37.7614237 16,35 C16,32.2385763 18.2385763,30 21,30 C22.149737,30 23.2088369,30.3880635 24.0534643,31.040355 C24.0181158,30.69839 24,30.3513106 24,30 C24,24.4771525 28.4771525,20 34,20 C38.1186403,20 41.6557312,22.4899093 43.1881213,26.0465765 C43.4544804,26.0158124 43.7253936,26 44,26 C47.8659932,26 51,29.1340068 51,33 C51,36.8659932 47.8659932,40 44,40 L21,40 Z" id="Oval-152" fill="#FFFFFF" sketch:type="MSShapeGroup"></path>
        </g>
    </g>
</svg>